<?xml version="1.0" encoding="UTF-8"?><svg id="t" xmlns="http://www.w3.org/2000/svg" xmlns:xlink="http://www.w3.org/1999/xlink" viewBox="0 0 1500 500"><defs><style>.u{fill:#eaeae8;opacity:.2;}.u,.v{isolation:isolate;}.w{fill:#fff;}.x{fill:url(#r);}.y{fill:url(#l);}.a`{fill:#f7f5be;}.a`,.aa,.ab,.ac{opacity:.33;}.ad{opacity:.2;}.ad,.aa{fill:#010101;}.ae{fill:url(#c);}.af{opacity:.98;}.ag{fill:#30302f;}.ah{fill:url(#m);}.ai{fill:url(#f);}.aj{fill:#404141;}.ak{fill:url(#p);}.ab{fill:#f8f6bd;}.al{fill:url(#g);}.am{fill:url(#b);}.an{fill:url(#i);}.ao{fill:url(#h);}.ap{fill:url(#d);}.aq{fill:url(#e);}.ac{fill:#f5e5be;}.ar{fill:url(#s);}.as{fill:url(#n);}.at{fill:#8f1923;}.au{fill:url(#o);}.v{fill:#f7f4b0;opacity:.36;}.av{fill:url(#q);}.aw{fill:url(#k);}</style><linearGradient id="b" x1="178.66" y1="304.4" x2="20.33" y2="530.52" gradientTransform="matrix(1, 0, 0, 1, 0, 0)" gradientUnits="userSpaceOnUse"><stop offset="0" stop-color="#eb9c2f"/><stop offset=".06" stop-color="#ec9234"/><stop offset=".17" stop-color="#ee863b"/><stop offset=".28" stop-color="#ef833e"/><stop offset=".61" stop-color="#e04b34"/><stop offset="1" stop-color="#992620"/></linearGradient><linearGradient id="c" x1="178.5" y1="105.46" x2="26.5" y2="322.54" xlink:href="#b"/><linearGradient id="d" x1="334.08" y1="117.94" x2="55.57" y2="515.68" gradientTransform="matrix(1, 0, 0, 1, 0, 0)" gradientUnits="userSpaceOnUse"><stop offset="0" stop-color="#eb9c2f"/><stop offset=".06" stop-color="#ec9234"/><stop offset=".17" stop-color="#ee863b"/><stop offset=".28" stop-color="#ef833e"/><stop offset=".61" stop-color="#e04b34"/><stop offset="1" stop-color="#992620"/></linearGradient><linearGradient id="e" x1="280.06" y1="112.33" x2="107.32" y2="359.02" xlink:href="#d"/><linearGradient id="f" x1="10651.82" y1="15756.48" x2="10696.75" y2="15668.52" gradientTransform="translate(12095.98 17899.05) rotate(-177.64) scale(1.18 1.08)" xlink:href="#d"/><linearGradient id="g" x1="10350.8" y1="15670.68" x2="10418.54" y2="15549.05" gradientTransform="translate(12439.65 17292.25) rotate(-179.79) scale(1.18 1.08)" xlink:href="#d"/><linearGradient id="h" x1="919.12" y1="-169.92" x2="782.09" y2="25.77" gradientTransform="translate(-630.17 432.07) rotate(-3.47)" xlink:href="#d"/><linearGradient id="i" x1="3367.15" y1="19119.65" x2="3241.02" y2="19019.25" gradientTransform="translate(3570.09 19288.43) rotate(-19.95) scale(1 -1)" xlink:href="#d"/><symbol id="a" viewBox="0 0 432.22 663.49"><g><g><path class="aj" d="M268.25,441.37c-21.32,6.02-27.57,19.01-45.45,25.41-10.05,3.6-25.38,5.69-47.7-2.15,1.97,10.86,3.79,25.67,3.36,43.25-.68,28.17-6.8,49.52-9.79,58.83-2.46,7.64-8.73,25.6-21.37,46.11-.26,.43-1.52,2.46-2.96,4.67-7.12,10.89-19.59,27.23-41.35,46,5.55-2.46,12.43-5.66,20.22-9.63,11.25-5.74,19.45-10.56,21.14-11.56,0,0,19.62-11.51,38.15-26.42,43.41-34.94,70.25-76.37,75.14-84.03,22.01-34.53,34.35-67.28,41.49-92.3-7.43-1.06-18.51-1.67-30.86,1.82Z"/><path class="ag" d="M201.03,481.61c30.95,10.08,69.71-6.82,98.08-42.06-7.43-1.06-18.51-1.67-30.86,1.82-21.32,6.02-27.57,19.01-45.45,25.41-10.05,3.59-25.36,5.68-47.64-2.14,0,.08,0,.15-.02,.22,9.65,10.06,19.18,14.55,25.89,16.74h0Z"/><path class="u" d="M235.11,482.76c.08,3.26,.09,6.63,0,10.12-.68,28.17-6.8,49.52-9.79,58.83-2.37,7.37-8.29,24.34-20.05,43.94,29.98-29.16,48.39-57.59,52.35-63.81,21.75-34.12,34.05-66.5,41.23-91.39-.42,.31-.84,.62-1.25,.93-18.31,22.04-40.7,36.59-62.48,41.37Z"/><path class="u" d="M259.95,473.2c-7.52,21.98-18.8,47.87-36.01,74.87-4.88,7.66-31.73,49.09-75.14,84.03-18.53,14.91-38.15,26.42-38.15,26.42-.75,.45-2.8,1.65-5.83,3.36-.62,.54-1.21,1.07-1.84,1.62,5.55-2.46,12.43-5.66,20.22-9.63,11.25-5.74,19.45-10.56,21.14-11.56,0,0,19.62-11.51,38.15-26.42,43.41-34.94,70.25-76.37,75.14-84.03,22.01-34.52,34.35-67.28,41.49-92.3-11.71,14.54-25.19,25.95-39.16,33.64Z"/></g><g><path class="am" d="M96.32,363.64c-15.53-17.86-26.39-39.85-30.7-64.09-1.35-7.62-2.06-15.46-2.06-23.46,0-16.33,2.94-31.98,8.33-46.45-7.8,15.38-17.12,29.85-27.78,43.21h.16c-7.36,9.63-13.93,19.9-19.61,30.71-2.83,5.38-5.44,10.9-7.82,16.53-3.2,7.59-5.96,15.41-8.29,23.42-5.56,19.15-8.55,39.39-8.55,60.33,0,88.54,53.28,164.63,129.53,197.98,17.73-28.79,27.97-62.69,27.97-98.98,0-55.09-23.57-104.66-61.18-139.2Z"/><path class="ae" d="M63.56,276.09c0,8,.71,15.84,2.06,23.46,.05-.05,.09-.1,.14-.15-.05,.05-.09,.1-.14,.15,4.31,24.24,15.17,46.23,30.7,64.09,1.11,1.02,2.2,2.05,3.29,3.1,.46,.45,.92,.9,1.38,1.36,.95,.93,1.88,1.87,2.81,2.81,.54,.55,1.07,1.11,1.6,1.67,.8,.85,1.6,1.7,2.39,2.56,.51,.55,1.01,1.1,1.51,1.66,1.06,1.19,2.11,2.39,3.15,3.6,.41,.48,.82,.97,1.22,1.46,.93,1.11,1.85,2.24,2.75,3.37,.18,.22,.36,.44,.54,.66-2.64-6.31-5.92-14.95-8.93-25.45-9.23-32.2-9.31-58.96-8.92-70.83,.14-4.39,1.24-33.16,9.71-61.02,1.17-3.84,3.91-12.37,6.47-24.52,.18-.87,3.03-14.5,4.29-27.91,5.34-56.85-17.91-109.54-21.09-115.78-1.5-2.94-3.11-5.88-3.11-5.88-2.93-5.4-5.6-9.67-7.36-12.37,1.09,3.57,2.11,7.16,3.05,10.79,5.17,20.11,7.92,41.2,7.92,62.93,0,40.96-9.78,79.63-27.13,113.81v-.02c-5.37,14.47-8.32,30.12-8.32,46.45Z"/><path class="ad" d="M63.56,276.09c0,8,.71,15.84,2.06,23.46,.05-.05,.09-.1,.14-.15-.05,.05-.09,.1-.14,.15,4.31,24.24,15.17,46.23,30.7,64.09,1.11,1.02,2.2,2.05,3.29,3.1,.46,.45,.92,.9,1.38,1.36,.95,.93,1.88,1.87,2.81,2.81,.54,.55,1.07,1.11,1.6,1.67,.8,.85,1.6,1.7,2.39,2.56,.51,.55,1.01,1.1,1.51,1.66,1.06,1.19,2.11,2.39,3.15,3.6,.41,.48,.82,.97,1.22,1.46,.93,1.11,1.85,2.24,2.75,3.37,.18,.22,.36,.44,.54,.66-2.64-6.31-5.92-14.95-8.93-25.45-9.23-32.2-9.31-58.96-8.92-70.83,.14-4.39,1.24-33.16,9.71-61.02,1.17-3.84,3.91-12.37,6.47-24.52,.18-.87,3.03-14.5,4.29-27.91,5.34-56.85-17.91-109.54-21.09-115.78-1.5-2.94-3.11-5.88-3.11-5.88-2.93-5.4-5.6-9.67-7.36-12.37,1.09,3.57,2.11,7.16,3.05,10.79,5.17,20.11,7.92,41.2,7.92,62.93,0,40.96-9.78,79.63-27.13,113.81v-.02c-5.37,14.47-8.32,30.12-8.32,46.45Z"/><path class="ad" d="M71.55,281.69c-1.41-7.94-2.15-16.1-2.15-24.44,0-9.79,1.02-19.34,2.95-28.55-.16,.32-.31,.64-.48,.95v-.02c-5.37,14.47-8.32,30.12-8.32,46.45,0,8,.71,15.84,2.06,23.46,.05-.05,.09-.1,.14-.15-.05,.05-.09,.1-.14,.15,4.31,24.24,15.17,46.23,30.7,64.09,1.11,1.02,2.2,2.05,3.29,3.1,.46,.45,.92,.9,1.38,1.36,.95,.93,1.88,1.87,2.81,2.81,.54,.55,1.07,1.11,1.6,1.67,.8,.85,1.6,1.7,2.39,2.56,.51,.55,1.01,1.1,1.51,1.66,1.06,1.19,2.11,2.39,3.15,3.6,.41,.48,.82,.97,1.22,1.46,.93,1.11,1.85,2.24,2.75,3.37,.18,.22,.36,.44,.54,.66-2.64-6.31-5.92-14.95-8.93-25.45-1-3.49-1.89-6.91-2.68-10.26-.61-.57-1.21-1.16-1.83-1.72-16.18-18.6-27.49-41.51-31.98-66.76Z"/><path class="a`" d="M35.92,473.34c-17.24-26.92-29.34-57.45-34.93-90.2-.65,6.81-.99,13.72-.99,20.7,0,58.92,23.6,112.31,61.85,151.28,19.23,19.59,42.17,35.54,67.68,46.7,6.77-10.99,12.44-22.72,16.87-35.05-45.57-19.37-84.05-52.17-110.48-93.44Z"/><path class="a`" d="M29.2,402.63c0-60.74,14.58-118.07,40.44-168.69-7.32,13.77-15.87,26.8-25.53,38.9h.16c-7.36,9.63-13.93,19.9-19.61,30.71-2.83,5.38-5.44,10.9-7.82,16.53-3.2,7.59-5.96,15.41-8.29,23.42-3.71,12.76-6.26,26.01-7.56,39.63-.65,6.81-.99,13.72-.99,20.7,0,58.92,23.6,112.31,61.85,151.28-11.64-25.83-20.42-53.22-25.93-81.78-4.41-22.89-6.73-46.53-6.73-70.71Z"/></g><g><path class="ap" d="M242.89,55.15C191.97,24.34,133.47,4.8,70.84,0c16.85,5.31,38.73,13.41,63.04,25.88,46.57,23.89,76.51,50.72,82.99,56.63,14.82,13.5,59.39,56.34,88.21,124.5,17.98,42.52,27.92,89.26,27.92,138.33,0,70.6-20.58,136.4-56.08,191.72-19.98,31.14-44.68,58.95-73.09,82.43,4.03,.22,8.08,.35,12.17,.35,50,0,96.03-17,132.64-45.52,41.08-32.01,70.29-78.53,79.91-131.87,1.94-14.58,3.08-29.42,3.36-44.47,.05-2.54,.08-5.09,.08-7.65,0-142.15-75.76-266.61-189.11-335.19Z"/><path class="aq" d="M70.84,0c23.52,8.34,186,68.63,218.3,210.23,4.42,19.37,7.09,43.3,4.51,71.45,7.63,14.38,15.72,33.02,21.11,55.58,20.05,83.96-12.88,157.33-14.34,156.96-1.93-.48,68.59-124.49,34.08-251.84C301.98,122.37,199.94,29.4,70.84,0Z"/><path class="ad" d="M70.84,0c23.52,8.34,186,68.63,218.3,210.23,4.42,19.37,7.09,43.3,4.51,71.45,7.63,14.38,15.72,33.02,21.11,55.58,20.05,83.96-12.88,157.33-14.34,156.96-1.93-.48,68.59-124.49,34.08-251.84C301.98,122.37,199.94,29.4,70.84,0Z"/><path class="ad" d="M334.5,242.37c-17.33-63.94-54.4-120.2-104.77-163.27,41.44,41.73,72.23,91.61,88.7,146.77,17.35,58.14,13.31,115.76,2.76,163.41,.59,38.61-7.68,71.07-13.98,89.25,16.36-37.28,54.53-135.67,27.29-236.16Z"/><path class="a`" d="M243.11,53.79C198.92,27.05,149.01,8.81,95.66,1.32c174.51,30.41,307.18,182.63,307.18,365.84,0,81.12-26.01,156.16-70.14,217.24,5.57-3.57,10.97-7.38,16.17-11.44,41.08-32.01,70.29-78.53,79.91-131.87,1.94-14.58,3.08-29.42,3.36-44.47,.05-2.54,.08-5.09,.08-7.65,0-142.15-75.76-266.61-189.11-335.19Z"/><path class="a`" d="M245.07,579.31c-12.67,14.48-26.47,27.93-41.31,40.18,4.03,.22,8.08,.35,12.17,.35,50,0,96.03-17,132.64-45.52,41.08-32.01,70.29-78.53,79.91-131.87,1.94-14.58,3.08-29.42,3.36-44.47,.05-2.54,.08-5.09,.08-7.65,0-9.17-.32-18.27-.94-27.28-9.15,105.59-85.41,191.96-185.92,216.25Z"/></g><g class="af"><g><path class="ai" d="M221.93,472.27c53.15-60.06-17.14-81.29-4.7-125.28-41.66,45.41-8.4,53.09,5.39,84.86,8.51,19.6,.87,32.35-.68,40.41h0Z"/><path class="ac" d="M240.09,416.29c-7.1-23.99-30.47-42.38-22.86-69.3-7.58,8.26-12.67,15.27-15.86,21.41,2.65,27.26,20.17,23.66,38.72,47.89Z"/><path class="ac" d="M236.53,450.73l1.23-2.02c18.93-43.04-31.19-64.03-20.53-101.73h0c-24.93,45.6,23.31,49.23,19.3,103.74Z"/></g><g><path class="al" d="M264.88,295.73c-87.07,76.26,16.3,80.15-18.76,163.48,82.38-89.84,25.37-103.53,18.76-163.48Z"/><path class="ac" d="M290.18,376.09c-1.25-26.92-21.51-46.08-25.29-80.37-8.95,7.83-15.88,14.9-21.16,21.38-2.74,37.57,21.31,30.26,46.45,58.99Z"/><path class="ac" d="M264.88,295.73c-.36,.32-.71,.63-1.07,.95-29.2,48.1,28.18,57.82,8.8,129.59,41.22-61.52-2.02-78.8-7.73-130.54Z"/></g><g><path class="ao" d="M250.05,190.59c-10.29-12.64-23.01-17.91-29.4-20.02-.13,.46-.26,.91-.41,1.37-15.38,33.9-67.01,60.84-65.26,98.52,.13,1.94,.36,3.89,.7,5.87-1.54,1.96-2.93,3.95-4.18,5.97-.83,1.35-1.61,2.7-2.32,4.07-.36,.68-.7,1.37-1.03,2.05-.98,2.05-1.84,4.12-2.58,6.18-2.21,6.18-3.37,12.33-3.76,18.06-.09,1.27-.14,2.53-.15,3.75,0,.61,0,1.22,0,1.82,.03,1.8,.13,3.55,.3,5.21,.44,4.45,1.34,8.37,2.48,11.48h0c-.16-.15-.33-.3-.5-.46l-.03-.02c-.18-.17-.37-.35-.57-.54l1.11,1.44s.6-3.89,.65-4.19c3.21-17.07,7.53-26.17,12.68-32.28,9.57-11.31,12.7-6.49,24.03-19.66,10.4-12.1,12.83-23.61,20.7-24,3.24-.16,12.42,1.79,10.23,15.85-9.28,28.99-48.62,52.5-59.01,83.02-11.79,38.46,13.87,61.92,41.72,82.6,7.42,5.35,14.74,14.15,18.79,22.19,3.22-28.74-22.37-43.08-28.39-62.19-15.61-49.58,65.73-87.28,79.4-143.18,2.94-16.95,2.2-41.53-15.23-62.93Z"/><path class="ab" d="M250.05,190.59c-10.29-12.64-23.01-17.91-29.4-20.02-.13,.46-.26,.91-.41,1.37-.24,.54-.5,1.07-.76,1.61-.06,.12-.12,.24-.18,.36-.21,.42-.42,.83-.63,1.24-.06,.11-.12,.22-.18,.32-.23,.43-.46,.85-.69,1.28-.04,.08-.09,.16-.14,.24-.26,.45-.52,.91-.78,1.36-.03,.05-.06,.09-.08,.14-.29,.48-.58,.97-.89,1.45l-.04,.06c-.32,.51-.64,1.01-.97,1.52h0c-.69,1.06-1.4,2.09-2.14,3.13l-.04,1.32c38.49,18.52,51.94,55.41,29.81,109.48,.23-.25,.46-.5,.68-.75,10.07-12.82,18.45-26.36,22.08-41.19,2.94-16.95,2.2-41.53-15.23-62.93Z"/><path class="an" d="M202.65,127.68c-.38,41.58-45.99,74.17-64.76,100.56-11.47,16.64-13.06,29.91-6.44,49.38-12,28.98,6.83,51.94,13,57.32-4.57-12.48-5.2-37.72,11.22-58.6-7.83-40.81,48.4-68.75,64.57-104.39,6.32-18.91-9.19-34.12-17.59-44.26h0Z"/><path class="v" d="M202.82,127.88c-.05-.07-.11-.13-.16-.2-.38,41.58-45.99,74.17-64.76,100.55-11.47,16.64-13.06,29.91-6.44,49.38-12,28.98,6.83,51.94,13,57.32-9.07-17.58-12.74-36.35-2.11-58.23-7.15-44.11,27.27-62.74,51.38-93.4,21.87-27.74,14.59-42.51,9.11-55.43h-.01Z"/><path class="w" d="M222.55,171.09l-.75-1.68c-.1,.35-.65,1.22-1.54,2.5,0,.01,0,.03-.01,.04-14.32,31.56-60.05,57.09-64.89,90.87-.49,4.73-.35,9.3,.32,13.52,4.22-8.91,10.1-17.57,16.6-23.19-1.04-2.35-1.65-4.95-1.89-7.38-.27-3.94,1.88-8.54,1.88-8.54,9.92-15.94,44.64-44.8,50.28-66.14Z"/><path class="ad" d="M222.64,245.36c-12.93-6.95-23.38,6.91-24.78,11.71,.07-.08,.14-.16,.21-.24-.07,.1-.19,.18-.22,.3,5.96-4.22,16.89-2.13,14.93,13.96-10.33,32.31-56.8,56.48-61.34,93.29,18.28-46.08,106.55-92.24,71.21-119.01Z"/><path class="aa" d="M217.2,252.47c-4.12-2.72-9.34-3.32-19.3,4.57-.02,.03-.04,.05-.05,.08h0c5.96-4.21,16.89-2.12,14.93,13.97-4.71,14.74-16.95,27.79-29.3,41.12l-.1,.37c19.84-21.77,51.97-45.15,33.82-60.1Z"/><path class="ab" d="M262.64,213.35c-.47-1.39-.98-2.79-1.55-4.19-2.55-6.28-6.13-12.55-11.04-18.57-9.28-11.39-20.53-16.8-27.33-19.3,83.39,119.31-105.25,176.26-25.46,244.48-.57-.75-1.14-1.51-1.7-2.26-.05-.06-.1-.13-.14-.19-.26-.34-.51-.69-.76-1.03-.02-.02-.04-.05-.05-.07-.27-.36-.53-.73-.79-1.09-.05-.07-.09-.13-.14-.2-.21-.3-.43-.59-.64-.89-.06-.08-.11-.16-.17-.24-.25-.36-.5-.72-.75-1.08l-.03-.04c-.23-.34-.45-.67-.68-1.01-.06-.09-.12-.18-.18-.27-.2-.3-.39-.6-.58-.9-.04-.06-.08-.12-.12-.19-.22-.35-.44-.71-.65-1.06-.05-.08-.09-.15-.14-.23-.17-.29-.34-.57-.5-.86-.05-.09-.11-.19-.16-.28-.2-.36-.4-.72-.59-1.07l-.02-.04c-.18-.34-.36-.69-.53-1.03-.05-.1-.1-.2-.14-.3-.14-.29-.28-.58-.41-.88-.04-.08-.07-.15-.11-.23-.16-.36-.32-.72-.46-1.08-.03-.08-.07-.17-.1-.25-.12-.29-.23-.58-.34-.87-.04-.1-.08-.21-.11-.31-.13-.37-.26-.74-.38-1.11-15.61-49.58,65.73-87.28,79.4-143.18,.09-.53,.18-1.07,.26-1.61,.17-1.09,.32-2.21,.45-3.35,.07-.57,.13-1.15,.19-1.73,.96-9.93,.43-21.63-3.55-33.48Z"/></g></g></g></symbol><linearGradient id="k" x1="625.38" y1="291.42" x2="625.38" y2="224.59" gradientTransform="translate(-427.38 -224.03)" gradientUnits="userSpaceOnUse"><stop offset="0" stop-color="#ed803d"/><stop offset=".45" stop-color="#de4a33"/><stop offset="1" stop-color="#c32529"/></linearGradient><linearGradient id="l" x1="679.38" y1="377.85" x2="589.38" y2="377.85" gradientTransform="translate(-427.38 -224.03)" gradientUnits="userSpaceOnUse"><stop offset="0" stop-color="#facc6c"/><stop offset=".62" stop-color="#f29a4d"/><stop offset="1" stop-color="#ee823e"/><stop offset="1" stop-color="#d85433"/><stop offset="1" stop-color="#c32529"/></linearGradient><linearGradient id="m" x1="476.88" y1="291.74" x2="476.88" y2="224.59" xlink:href="#k"/><linearGradient id="n" x1="940.38" y1="395.03" x2="940.38" y2="240.08" xlink:href="#k"/><linearGradient id="o" x1="940.38" y1="279.33" x2="940.38" y2="224.59" xlink:href="#l"/><linearGradient id="p" x1="782.88" y1="382.97" x2="782.88" y2="224.59" xlink:href="#k"/><linearGradient id="q" x1="850.38" y1="395.03" x2="850.38" y2="224.59" xlink:href="#l"/><linearGradient id="r" x1="22775.51" y1="164.66" x2="22775.51" y2="4.8" gradientTransform="translate(23463.98) rotate(-180) scale(1 -1)" xlink:href="#l"/><linearGradient id="s" x1="616.49" y1="210.46" x2="616.49" y2="-39.46" gradientTransform="matrix(1, 0, 0, 1, 0, 0)" xlink:href="#k"/><symbol id="j" viewBox="0 0 728.95 171"><g><g><path class="aw" d="M181.57,34.91h54.78c10.43,0,15.65-5.77,15.65-17.04,0-11.54-5.22-17.31-15.65-17.31h-72.52c-13.83,0-19.83,6.03-19.83,19.93v46.9c4.65-33.75,37.57-32.48,37.57-32.48Z"/><path class="at" d="M224.13,100.99c10.51,0,15.76-5.77,15.76-17.04s-5.25-17.3-15.76-17.3h-44.13v34.35h44.13Z"/><path class="y" d="M252,153.96c0-11.54-5.25-17.31-15.74-17.31h-56.41v7.18s.35,27.17-17.84,27.17h74.26c10.5,0,15.74-5.77,15.74-17.04Z"/><path class="at" d="M180,143.83V34.91s-31.54-1.28-36,32.48v83.68c0,13.9,5.75,19.93,19,19.93,17.34,0,17-27.17,17-27.17Z"/></g><g><path class="ah" d="M38,35.69h46c10,0,15-5.98,15-17.69,0-11.71-5-17.43-15-17.43H19C5.75,.56,0,6.55,0,20.34v47.37c0-37.1,38-32.02,38-32.02Z"/><path class="at" d="M0,67.71v87.68c0,10.41,5.92,15.61,18,15.61,12.08,0,18-5.2,18-15.61V35.69S0,30.62,0,67.71Z"/><path class="at" d="M77.2,114.53c10.37,0,15.55-5.98,15.55-17.69,0-11.71-5.18-17.43-15.55-17.43H36v35.13h41.2Z"/></g><g><path class="as" d="M513,171c12.08,0,18-5.16,18-15.49V16.06s-36,9.85-36,39.25v100.2c0,10.33,5.92,15.49,18,15.49Z"/><path class="au" d="M531,16.06c0-10.33-5.92-15.49-18-15.49-12.08,0-18,5.16-18,15.49V55.31c0-29.4,36-39.25,36-39.25Z"/></g><g><path class="at" d="M297,21.26V155.48c0,10.34,6,15.52,18,15.52s18-5.17,18-15.52V45c-.89-1.3-21.63-31.2-32.67-26.68-1.14,.46-2.29,1.34-3.33,2.94Z"/><path class="ak" d="M413.86,119.35l-59.23-102.26c-6.16-10.59-15.01-16.53-31.36-16.53-17.15,0-26.27,6.71-26.27,20.92,9.81-15.42,36.99,28.92,36.99,28.92l61.91,103.55c20.89,21.72,17.96-34.6,17.96-34.6Z"/><path class="av" d="M431.82,.56c-12.12,0-18.18,5.16-18.18,15.49V119.35s2.88,56.33-17.65,34.6c6.59,11.36,14.22,17.04,29.24,17.04,16.6,0,24.76-6.97,24.76-20.92V16.06c0-10.33-6.06-15.49-18.17-15.49Z"/></g><g><path class="x" d="M647.98,84.59c.14-9.05,2.33-17.61,6.14-25.22,.22-.37,.34-.56,.34-.56l5.48-8.77,22.52-36.05C688.2,4.66,694.7,0,709.2,0c.27,0,.52,.01,.78,.02C710.23,.01,710.46,0,710.7,0c13.75,0,18.25,4.15,18.25,10.36,0,5.44-3.5,10.36-7.5,16.06l-1.48,2.16-39.12,56.91,39.12,56.91,1.48,2.16c4,5.7,7.5,10.62,7.5,16.06,0,6.22-4.5,10.36-18.25,10.36-.25,0-.47-.01-.72-.02-.26,0-.51,.02-.78,.02-14.5,0-21-4.66-26.75-13.99l-22.52-36.05-5.48-8.77s-.13-.2-.34-.56c-3.81-7.61-6-16.16-6.14-25.22,0-.3,.01-.6,.03-.91-.01-.31-.02-.61-.03-.91Z"/><path class="ar" d="M656.98,84.59c-.14-9.05-2.33-17.61-6.14-25.22-.22-.37-.34-.56-.34-.56l-5.48-8.77-22.52-36.05c-5.75-9.33-12.25-13.99-26.75-13.99-.27,0-.52,.01-.78,.02-.24,0-.47-.02-.72-.02-13.75,0-18.25,4.15-18.25,10.36,0,5.44,3.5,10.36,7.5,16.06l1.48,2.16,39.12,56.91-39.12,56.91-1.48,2.16c-4,5.7-7.5,10.62-7.5,16.06,0,6.22,4.5,10.36,18.25,10.36,.25,0,.47-.01,.72-.02,.26,0,.51,.02,.78,.02,14.5,0,21-4.66,26.75-13.99l22.52-36.05,5.48-8.77s.13-.2,.34-.56c3.81-7.61,6-16.16,6.14-25.22,0-.3-.01-.6-.03-.91,.01-.31,.02-.61,.03-.91Z"/></g></g></symbol></defs><use width="432.22" height="663.49" transform="translate(65.38 26.63) scale(.67)" xlink:href="#a"/><use width="728.95" height="171" transform="translate(426.06 132.11) scale(1.38)" xlink:href="#j"/></svg>