<?xml version="1.0" ?>
<!DOCTYPE svg  PUBLIC '-//W3C//DTD SVG 1.1//EN'  'http://www.w3.org/Graphics/SVG/1.1/DTD/svg11.dtd'>
<!-- Uploaded to: SVG Repo, www.svgrepo.com, Generator: SVG Repo Mixer Tools -->
<svg fill="#000000" width="800px" height="800px" viewBox="0 0 512 512" version="1.1" xml:space="preserve" xmlns="http://www.w3.org/2000/svg" xmlns:xlink="http://www.w3.org/1999/xlink">
<g id="_x34_80_x2C__Coder_x2C__coding_x2C__computer_x2C__list_x2C__paper">
<g>
<path d="M88.048,379.526V202.854c0-1.723,1.44-3.164,3.164-3.164h50.781v-22.303    H78.375c-3.318,0-6.328,1.363-8.541,3.551c-2.187,2.186-3.55,5.222-3.55,8.514v190.075H88.048z M334.563,199.689h57.391    c1.723,0,3.164,1.441,3.164,3.164V322.6h21.762V189.451c0-3.292-1.363-6.328-3.576-8.514c-2.16-2.188-5.195-3.551-8.514-3.551    h-70.227V199.689z M420.12,385.855h-0.104H392.03h-0.077c-117.174,0-234.347,0-351.521,0v18.598c0,4.501,3.086,8.746,7.408,12.064    c5.222,3.987,12.143,6.508,17.879,6.508h351.724c5.712,0,12.631-2.521,17.879-6.533c4.322-3.293,7.408-7.563,7.408-12.039v-18.598    H420.12z M246.405,399.617c-1.234-1.209-2.933-1.98-4.81-1.98s-3.603,0.771-4.836,1.98c-1.209,1.234-1.981,2.958-1.981,4.836    s0.772,3.576,1.981,4.811c1.233,1.235,2.958,1.98,4.836,1.98c1.8,0,3.446-0.694,4.682-1.852l0.128-0.129    c1.235-1.234,1.981-2.933,1.981-4.811S247.641,400.852,246.405,399.617z M241.595,391.309c3.601,0,6.895,1.465,9.26,3.857    c2.394,2.393,3.859,5.686,3.859,9.287c0,3.627-1.465,6.92-3.833,9.287l-0.205,0.18c-2.367,2.264-5.558,3.652-9.081,3.652    c-3.627,0-6.895-1.466-9.286-3.832c-2.394-2.367-3.859-5.66-3.859-9.287c0-3.602,1.465-6.895,3.859-9.287    C234.701,392.773,237.968,391.309,241.595,391.309z M416.879,358.922h-21.762v20.604h21.762V358.922z M455.594,328.928v23.666    h6.07v-23.666H455.594z M467.991,328.928v23.666h18.008v-23.666H467.991z M304.387,328.928v8.668h131.605    c1.749,0,3.163,1.416,3.163,3.165s-1.414,3.163-3.163,3.163H304.387v8.67h87.566h0.077h27.986h0.181h29.067v-23.666H420.12h-0.104    H392.03h-0.077H304.387z M298.084,352.594v-23.666h-13.351l-24.926,11.833l24.926,11.833H298.084z M177.773,89.488    c-1.75,0-3.164-1.415-3.164-3.164c0-1.724,1.415-3.139,3.164-3.139h47.95c1.75,0,3.164,1.415,3.164,3.139    c0,1.749-1.414,3.164-3.164,3.164H177.773z M177.773,102.222c-1.75,0-3.164-1.415-3.164-3.165c0-1.723,1.415-3.164,3.164-3.164    h47.95c1.75,0,3.164,1.441,3.164,3.164c0,1.75-1.414,3.165-3.164,3.165H177.773z M177.773,149.322    c-1.75,0-3.164-1.415-3.164-3.139c0-1.749,1.415-3.163,3.164-3.163h128.595c1.724,0,3.164,1.414,3.164,3.163    c0,1.724-1.44,3.139-3.164,3.139H177.773z M177.773,163.316c-1.75,0-3.164-1.441-3.164-3.164c0-1.75,1.415-3.164,3.164-3.164    h128.595c1.724,0,3.164,1.414,3.164,3.164c0,1.723-1.44,3.164-3.164,3.164H177.773z M177.773,177.283    c-1.75,0-3.164-1.414-3.164-3.164c0-1.749,1.415-3.163,3.164-3.163h128.595c1.724,0,3.164,1.414,3.164,3.163    c0,1.75-1.44,3.164-3.164,3.164H177.773z M177.773,191.252c-1.75,0-3.164-1.415-3.164-3.164s1.415-3.164,3.164-3.164h128.595    c1.724,0,3.164,1.415,3.164,3.164s-1.44,3.164-3.164,3.164H177.773z M177.773,205.221c-1.75,0-3.164-1.415-3.164-3.164    c0-1.725,1.415-3.164,3.164-3.164h128.595c1.724,0,3.164,1.439,3.164,3.164c0,1.749-1.44,3.164-3.164,3.164H177.773z     M177.773,219.189c-1.75,0-3.164-1.416-3.164-3.164c0-1.725,1.415-3.165,3.164-3.165h128.595c1.724,0,3.164,1.44,3.164,3.165    c0,1.748-1.44,3.164-3.164,3.164H177.773z M177.773,233.184c-1.75,0-3.164-1.441-3.164-3.166c0-1.748,1.415-3.163,3.164-3.163    h128.595c1.724,0,3.164,1.415,3.164,3.163c0,1.725-1.44,3.166-3.164,3.166H177.773z M283.911,358.922l-0.026-0.025v0.025H283.911z     M334.563,230.43l0.023,59.834l-0.023,0.078v0.076l0,0v0.078l0,0v0.076l0,0v0.104h-0.027v0.077l0,0v0.077l0,0l-0.023,0.077l0,0    l-0.027,0.077l0,0v0.077l0,0l-0.025,0.077l0,0l-0.025,0.077l0,0l-0.025,0.052l0,0l-0.027,0.076l0,0l-0.024,0.078l0,0l-0.026,0.076    l0,0l-0.025,0.053l0,0l-0.052,0.076l0,0l-0.026,0.078l0,0l-0.024,0.051l0,0l-0.053,0.078l0,0l-0.024,0.077l0,0l-0.053,0.051l0,0    l-0.024,0.077h-0.026l-0.026,0.051l0,0l-0.051,0.053l0,0l-0.051,0.077l0,0l-0.053,0.051l0,0l-0.024,0.051h-0.026l-0.026,0.077l0,0    l-0.051,0.053h-0.026l-0.024,0.051h-0.027l-0.051,0.051l0,0l-0.053,0.053l0,0l-0.051,0.051l0,0l-0.051,0.051l0,0l-0.053,0.053    h-0.023l-0.052,0.051l0,0l-0.052,0.025l0,0l-0.078,0.053l0,0l-0.051,0.025l0,0l-0.077,0.052l0,0l-0.051,0.051l0,0l-0.077,0.026    l0,0l-0.053,0.025h-0.024l-0.053,0.052l0,0l-0.077,0.025l0,0l-0.077,0.025l0,0l-0.051,0.026l0,0l-0.077,0.024l0,0l-0.078,0.026    l0,0l-0.076,0.026l0,0l-0.078,0.024l0,0l-0.076,0.026l0,0l-0.078,0.026l0,0h-0.076l0,0l-0.078,0.024l0,0h-0.077l0,0l-0.077,0.026    l0,0h-0.077l0,0l-0.077,0.026l0,0h-0.077l0,0H331.5l0,0h-0.077l0,0H159.278c-1.75,0-3.164-1.416-3.164-3.165v-10.933h-10.958    l-0.077-0.025h-0.077l0,0h-0.077l0,0h-0.077l0,0h-0.077v-0.025h-0.077l0,0h-0.078l0,0l-0.077-0.026l0,0l-0.077-0.025l0,0h-0.077    v-0.025h-0.077l0,0l-0.077-0.026l0,0l-0.077-0.025l0,0l-0.077-0.025l0,0l-0.077-0.026l0,0l-0.078-0.025l0,0l-0.051-0.025l0,0    l-0.077-0.052l0,0l-0.077-0.025l0,0l-0.051-0.026l0,0l-0.077-0.051l0,0l-0.053-0.027l0,0l-0.077-0.051l0,0l-0.051-0.025v-0.025    l-0.077-0.025l0,0l-0.051-0.051l0,0l-0.077-0.053l0,0l-0.053-0.051l0,0l-0.051-0.027v-0.023l-0.051-0.027v-0.025l-0.077-0.025    v-0.025l-0.053-0.026v-0.025l-0.051-0.052l0,0l-0.051-0.052l0,0l-0.052-0.051l0,0l-0.051-0.052l0,0l-0.026-0.052v-0.025    l-0.051-0.052l0,0l-0.051-0.051l0,0l-0.053-0.077l0,0l-0.024-0.052l0,0l-0.053-0.077l0,0l-0.024-0.052l0,0l-0.051-0.078l0,0    l-0.026-0.051v-0.025l-0.026-0.051l0,0l-0.051-0.078l0,0l-0.026-0.076l0,0l-0.025-0.051v-0.027l-0.026-0.051l0,0l-0.026-0.077l0,0    l-0.024-0.077l0,0l-0.026-0.077l0,0l-0.026-0.077l0,0v-0.077l0,0l-0.024-0.077l0,0l-0.026-0.077l0,0v-0.077l0,0l-0.026-0.078l0,0    v-0.076l0,0v-0.078l0,0l-0.024-0.076l0,0v-0.078l0,0v-0.076v-0.027v-70.123H94.377v173.509h294.41v-20.604H284.039l0,0h-0.024    h-0.026h-0.026h-0.051l0,0h-0.026v-0.025h-0.051l0,0h-0.051l0,0h-0.053l0,0h-0.025l0,0h-0.025h-0.026h-0.025v-0.025h-0.052l0,0    l0,0h-0.025h-0.026l0,0h-0.026h-0.024l-0.026-0.027l0,0l-0.128-0.025l0,0l0,0c-0.258-0.051-0.514-0.129-0.745-0.257l-0.026-0.026    h-0.026l-31.408-14.919l-0.078-0.052l0,0l-0.051-0.025h-0.026l-0.026-0.026l-0.051-0.026h-0.026l-0.051-0.024l-0.051-0.053    l-0.053-0.024l-0.024-0.026l-0.026-0.025h-0.026l-0.024-0.025l-0.053-0.052l-0.077-0.025l-0.025-0.052h-0.026l-0.051-0.052    l-0.053-0.025l-0.051-0.052v-0.025l-0.026-0.026l-0.051-0.051l-0.051-0.053l-0.051-0.051l-0.053-0.051l-0.025-0.053l-0.052-0.051    l0,0l0,0v-0.025l-0.077-0.078l-0.051-0.051l-0.026-0.076l-0.051-0.052l-0.026-0.053l-0.024-0.077l-0.053-0.051l-0.024-0.077    l-0.026-0.051l-0.026-0.077l-0.024-0.052l-0.026-0.025v-0.052l-0.026-0.025l-0.024-0.078l-0.053-0.129l-0.025-0.076v-0.078    l-0.026-0.076l-0.026-0.078v-0.076l-0.025-0.077v-0.077v-0.077l-0.026-0.077v-0.077v-0.026v-0.051v-0.026v-0.051v-0.026v-0.051    v-0.026v-0.052v-0.025l0.026-0.051v-0.027v-0.051V340.4v-0.051v-0.027l0.025-0.051v-0.025v-0.051v-0.027l0.026-0.051v-0.025    v-0.052l0.026-0.026v-0.024v-0.053l0.025-0.024v-0.053l0.026-0.024l0.026-0.077v-0.052l0.024-0.025v-0.052l0.026-0.025    l0.026-0.052l0.024-0.077l0,0l0.026-0.078l0,0l0.026-0.051l0,0l0.024-0.051l0.026-0.027l0.026-0.051v-0.025l0.024-0.025    l0.026-0.025v-0.053l0.026-0.025l0.024-0.025l0.026-0.025v-0.025l0.026-0.027l0.025-0.025l0.026-0.052l0.051-0.051l0.052-0.077    l0,0l0.025-0.051h0.026l0.026-0.053h0.024l0.026-0.051h0.024l0.026-0.051h0.026l0.024-0.026l0.026-0.051l0,0l0.051-0.052l0,0    l0.053-0.052l0,0l0.051-0.025l0.026-0.026l0.025-0.025l0.026-0.025l0.051-0.025l0,0l0.077-0.053l0.053-0.051h0.024l0.053-0.051    l0.051-0.027h0.026l0.024-0.025l0.026-0.025l0.051-0.025h0.026l0.077-0.051l0,0l0.078-0.027l31.356-14.895l0.052-0.025    l0.026-0.025l0.051-0.025l0.053-0.025l0,0h0.051l0,0l0.051-0.025l0.026-0.027l0,0l0.051-0.023l0,0h0.053v-0.027h0.024h0.026    l0.026-0.025h0.024l0.026-0.025h0.026h0.024l0,0l0.026-0.025h0.026h0.024h0.026l0.051-0.027h0.026h0.024l0.026-0.024h0.026h0.024    h0.026l0.026-0.026h0.024h0.053l0,0h0.051v-0.025h0.052h0.052l0,0h0.052l0,0l0.051-0.025h0.053h0.051h0.051h0.053l0,0h0.051h0.051    h17.211h0.077h87.46V206.018h-54.225V230.43z M279.64,107.598h43.911L279.64,65.643V107.598z M328.259,113.926h-51.783    c-1.749,0-3.163-1.415-3.163-3.164V61.397c-36.966-0.025-73.905,0-110.871,0c0,75.218,0,150.46,0,225.702h165.817v-84.246v-0.076    v-28.555v-0.154V113.926z M46.941,448.725c-1.75,0-3.164-1.416-3.164-3.164c0-1.725,1.415-3.139,3.164-3.139H309.66    c1.723,0,3.164,1.414,3.164,3.139c0,1.748-1.441,3.164-3.164,3.164H46.941z M200.771,464.725c-1.75,0-3.164-1.415-3.164-3.164    s1.414-3.164,3.164-3.164h181.792c1.75,0,3.164,1.415,3.164,3.164s-1.414,3.164-3.164,3.164H200.771z M401.187,464.725    c-1.749,0-3.164-1.415-3.164-3.164s1.415-3.164,3.164-3.164h22.715c1.75,0,3.164,1.415,3.164,3.164s-1.414,3.164-3.164,3.164    H401.187z M29.165,464.236c-1.748,0-3.164-1.415-3.164-3.165c0-1.748,1.416-3.163,3.164-3.163h86.125    c1.75,0,3.164,1.415,3.164,3.163c0,1.75-1.415,3.165-3.164,3.165H29.165z M48.896,273.904c0,1.723-1.414,3.138-3.164,3.138    s-3.164-1.415-3.164-3.138v-99.682c0-5.041,2.059-9.646,5.403-12.99c3.343-3.344,7.947-5.402,12.991-5.402h29.943    c1.748,0,3.164,1.415,3.164,3.164s-1.417,3.164-3.164,3.164H60.961c-3.318,0-6.354,1.363-8.541,3.525    c-2.162,2.186-3.525,5.222-3.525,8.539V273.904z M341.404,110.299c0-1.748,1.416-3.164,3.163-3.164    c1.749,0,3.165,1.416,3.165,3.164v43.088h34.6c1.749,0,3.163,1.415,3.163,3.164s-1.414,3.164-3.163,3.164h-37.765    c-1.747,0-3.163-1.415-3.163-3.164V110.299z M148.32,174.146v0.076v28.555v0.076v70.15h7.794V58.233v-0.077v-0.077l0,0v-0.077    h0.025v-0.077l0,0l0.052-0.31l0,0c0.283-1.439,1.542-2.547,3.087-2.547l100.401,0.027l-0.335-7.82H148.32V174.146z" style="fill-rule:evenodd;clip-rule:evenodd;"/>
</g>
</g>
<g id="Layer_1"/>
</svg>