<svg version="1.1" id="Layer_1" xmlns="http://www.w3.org/2000/svg" xmlns:xlink="http://www.w3.org/1999/xlink" viewBox="0 0 512 512" xml:space="preserve" fill="#000000"><g id="SVGRepo_bgCarrier" stroke-width="0"></g><g id="SVGRepo_tracerCarrier" stroke-linecap="round" stroke-linejoin="round"></g><g id="SVGRepo_iconCarrier"> <path style="fill:#FFF8EF;" d="M35.147,231.993h76.742v40.012H99.165l-13.603-13.684c-1.701-1.711-4.082-2.563-6.482-2.32 c-2.389,0.262-4.534,1.585-5.842,3.601l-9.363,14.004l-9.363-14.004c-2.465-3.668-7.437-4.643-11.105-2.178 c-0.861,0.578-1.6,1.318-2.178,2.178l-9.363,13.444l-14.244-24.007L35.147,231.993z"></path> <polygon style="fill:#E0CBB5;" points="35.147,231.993 17.942,249.278 20.902,254.24 35.147,239.996 111.889,239.996 111.889,231.993 "></polygon> <path style="fill:#FFF8EF;" d="M455.985,264.002v-24.007h-16.004v24.007H455.985z M479.991,280.007v-56.016h-16.004v56.016H479.991z M474.47,207.987c11.87,0.044,21.482,9.656,21.526,21.526v44.972c-0.044,11.87-9.656,21.482-21.526,21.526h-20.966 c-10.325-0.043-19.176-7.386-21.126-17.525c-0.739-3.818-4.115-6.552-8.003-6.482h-24.407v-40.012h24.567 c3.888,0.071,7.264-2.664,8.003-6.482c1.938-10.081,10.701-17.406,20.966-17.525L474.47,207.987L474.47,207.987z"></path> <path style="fill:#E0CBB5;" d="M474.47,207.987h-20.966c-10.475-0.15-19.548,7.238-21.526,17.525 c-0.739,3.818-4.115,6.552-8.002,6.482h-24.007v16.004h24.567c3.888,0.071,7.264-2.664,8.003-6.482 c1.938-10.081,10.701-17.406,20.966-17.525h26.487v0.801c9.407,2.497,15.968,10.994,16.004,20.726v-16.004 C495.952,217.643,486.341,208.031,474.47,207.987z"></path> <path style="fill:#FFF8EF;" d="M335.951,296.011v24.007h-24.007v16.004h32.009c4.42,0,8.003-3.583,8.003-8.003v-32.009 L335.951,296.011L335.951,296.011z M175.907,296.011h-16.004v32.009c0,4.42,3.583,8.003,8.003,8.003h32.009v-16.004h-24.007V296.011 z M247.926,256.001v16.004h-32.009v-16.004c0-22.098,17.914-40.012,40.012-40.012c22.098,0,40.012,17.914,40.012,40.012h16.004 c0-30.936-25.079-56.016-56.016-56.016s-56.016,25.079-56.016,56.016v16.004h-8.003v16.004h128.036v-16.004h-32.009v-16.004 c0-17.678-14.331-32.009-32.009-32.009c-17.678,0-32.009,14.331-32.009,32.009h16.004c0-8.839,7.166-16.004,16.004-16.004 c8.839,0,16.004,7.166,16.004,16.004v16.004h-8.003v-16.004H247.926z M383.965,280.007v136.038H127.893V95.955h256.071V280.007z M351.956,215.989V183.98c0-4.42-3.583-8.003-8.003-8.003h-32.009v16.004h24.007v24.007H351.956z M199.913,191.982v-16.004h-32.009 c-4.42,0-8.003,3.583-8.003,8.003v32.009h16.004v-24.007H199.913z"></path> <path style="fill:#FF6600;" d="M127.893,432.05h256.071v27.208c-0.044,11.472-9.333,20.762-20.806,20.806h-214.46 c-11.472-0.044-20.762-9.333-20.805-20.806V432.05z M223.92,464.059h64.018v-16.004H223.92L223.92,464.059L223.92,464.059z"></path> <path style="fill:#FF5400;" d="M303.942,63.946h24.006V47.942h-24.007v16.004H303.942z M148.699,31.937h214.46 c11.472,0.044,20.762,9.333,20.806,20.806v27.208H127.893V52.744C127.937,41.27,137.226,31.981,148.699,31.937z M199.913,63.946 h88.025V47.942h-88.025L199.913,63.946L199.913,63.946z"></path> <g> <rect x="463.983" y="223.99" style="fill:#12210B;" width="16.004" height="56.016"></rect> <rect x="439.983" y="239.993" style="fill:#12210B;" width="16.004" height="24.007"></rect> <path style="fill:#12210B;" d="M351.956,183.98v32.009h-16.004v-24.007h-24.007v-16.004h32.009 C348.373,175.977,351.956,179.56,351.956,183.98z"></path> <path style="fill:#12210B;" d="M335.951,320.018v-24.007h16.004v32.009c0,4.42-3.583,8.003-8.003,8.003h-32.009v-16.004H335.951z"></path> <rect x="303.938" y="47.942" style="fill:#12210B;" width="24.007" height="16.004"></rect> <rect x="223.921" y="448.058" style="fill:#12210B;" width="64.014" height="16.004"></rect> <rect x="199.911" y="47.942" style="fill:#12210B;" width="88.024" height="16.004"></rect> </g> <path style="fill:#2FB4C2;" d="M215.917,272.005h88.025v-15.524c0.271-26.242-20.578-47.839-46.813-48.494h-1.201 c0,0-40.012,0-40.012,40.012L215.917,272.005L215.917,272.005z"></path> <g> <path style="fill:#12210B;" d="M255.929,215.989c-22.098,0-40.012,17.914-40.012,40.012v16.004h32.009v-16.004h16.004v16.004h8.003 v-16.004c0-8.839-7.166-16.004-16.004-16.004c-8.839,0-16.004,7.166-16.004,16.004H223.92c0-17.678,14.331-32.009,32.009-32.009 s32.009,14.331,32.009,32.009v16.004h32.009v16.004H191.911v-16.004h8.003v-16.004c0-30.936,25.079-56.016,56.016-56.016 s56.016,25.079,56.016,56.016h-16.004C295.94,233.903,278.026,215.989,255.929,215.989z"></path> <path style="fill:#12210B;" d="M175.907,320.018h24.007v16.004h-32.01c-4.42,0-8.003-3.583-8.003-8.003v-32.009h16.004 L175.907,320.018L175.907,320.018z"></path> <path style="fill:#12210B;" d="M167.904,175.977h32.009v16.004h-24.007v24.007h-16.004V183.98 C159.902,179.56,163.485,175.977,167.904,175.977z"></path> <path style="fill:#12210B;" d="M127.893,95.955v320.09h256.071V95.955H127.893z M148.699,31.937 c-11.472,0.044-20.762,9.333-20.805,20.806v27.208h256.071V52.744c-0.044-11.472-9.333-20.762-20.806-20.806L148.699,31.937 L148.699,31.937z M148.699,480.063h214.46c11.472-0.044,20.762-9.333,20.806-20.806V432.05H127.893v27.208 C127.937,470.73,137.226,480.019,148.699,480.063z M99.165,272.005h12.724v-40.012H35.147l-17.205,17.285l14.244,24.007 l9.043-13.444c2.465-3.668,7.437-4.643,11.105-2.178c0.861,0.578,1.6,1.318,2.178,2.178l9.363,13.764l9.363-14.004 c1.308-2.017,3.453-3.339,5.842-3.601c2.4-0.243,4.781,0.61,6.482,2.32L99.165,272.005z M474.47,296.011 c11.87-0.044,21.482-9.655,21.526-21.526v-44.972c-0.044-11.87-9.656-21.482-21.526-21.526h-20.966 c-10.325,0.043-19.176,7.386-21.126,17.525c-0.739,3.818-4.115,6.552-8.003,6.482h-24.407v40.012h24.567 c3.888-0.071,7.264,2.664,8.003,6.482c1.938,10.081,10.701,17.406,20.966,17.525L474.47,296.011L474.47,296.011z M512,229.513 v44.972c-0.044,20.709-16.821,37.487-37.531,37.531h-20.965c-15.494-0.017-29.386-9.553-34.969-24.007h-18.566v171.248 c0,20.33-16.48,36.81-36.81,36.81h-214.46c-20.33,0-36.81-16.48-36.81-36.81V288.01H95.883c-2.127,0.013-4.172-0.822-5.681-2.32 l-9.043-9.122l-10.643,16.004c-2.465,3.668-7.437,4.643-11.105,2.178c-0.861-0.578-1.6-1.318-2.178-2.178l-9.363-14.164 l-9.363,14.004c-1.472,2.236-3.965,3.587-6.642,3.601l0,0c-2.768-0.056-5.31-1.539-6.721-3.922L1.137,252.079 c-1.883-3.145-1.389-7.168,1.201-9.763l24.007-24.007c1.47-1.46,3.45-2.291,5.522-2.32h80.022V52.744 c0-20.33,16.48-36.81,36.81-36.81l0,0h214.46c20.33,0,36.81,16.48,36.81,36.81v163.245h18.565 c5.583-14.453,19.475-23.99,34.969-24.007h20.966C495.179,192.026,511.956,208.804,512,229.513z"></path> </g> <path style="fill:#FF6600;" d="M135.895,53.064v26.888h240.067V53.064c0-7.248-5.875-13.124-13.124-13.124H149.019 C141.77,39.94,135.895,45.815,135.895,53.064z M287.938,63.946h-88.025V47.942h88.025V63.946z M327.948,63.946h-24.007V47.942 h24.007V63.946z"></path> <path style="fill:#FF5400;" d="M375.962,432.05v24.967c0,8.309-6.735,15.044-15.044,15.044l0,0H150.939 c-8.309,0-15.044-6.735-15.044-15.044l0,0V432.05h-8.003v27.208c0.044,11.472,9.333,20.762,20.806,20.806h214.46 c11.472-0.044,20.762-9.333,20.806-20.806V432.05H375.962z"></path> <path style="fill:#E0CBB5;" d="M127.893,95.955v320.09h256.071V95.955H127.893z M364.519,408.043h-217.18 c-6.32,0-11.443-5.123-11.443-11.444l0,0V115.4c0-6.32,5.123-11.443,11.443-11.443l0,0h217.18c6.32,0,11.444,5.123,11.444,11.443 l0,0V396.6C375.962,402.919,370.839,408.043,364.519,408.043L364.519,408.043z"></path> </g></svg>