<svg version="1.1" id="Layer_1" xmlns="http://www.w3.org/2000/svg" xmlns:xlink="http://www.w3.org/1999/xlink" viewBox="0 0 512.001 512.001" xml:space="preserve" fill="#000000"><g id="SVGRepo_bgCarrier" stroke-width="0"></g><g id="SVGRepo_tracerCarrier" stroke-linecap="round" stroke-linejoin="round"></g><g id="SVGRepo_iconCarrier"> <path style="fill:#2FB4C2;" d="M234.668,426.403c-9.62,0-17.417,7.798-17.417,17.417s7.798,17.417,17.417,17.417 c9.62,0,17.417-7.798,17.417-17.417S244.287,426.403,234.668,426.403z M208.541,443.821c-0.005-9.62-7.808-17.413-17.428-17.407 c-6.464,0.004-12.394,3.587-15.404,9.308v-37.971c0-3.415,2.768-6.184,6.184-6.184h105.55c3.415,0,6.184,2.768,6.184,6.184v37.971 c-4.473-8.516-15.003-11.794-23.519-7.321c-8.516,4.473-11.794,15.003-7.321,23.519c4.473,8.516,15.003,11.794,23.519,7.321 c3.126-1.641,5.679-4.194,7.321-7.321v29.261c0,3.415-2.768,6.184-6.184,6.184h-105.55c-3.415,0-6.184-2.768-6.184-6.184V451.92 c4.479,8.513,15.01,11.784,23.524,7.305C204.954,456.215,208.537,450.285,208.541,443.821z"></path> <g> <path style="fill:#42210B;" d="M294.401,441.686c0.042,0.682,0.042,1.366,0,2.048C294.443,443.051,294.443,442.367,294.401,441.686 z"></path> <path style="fill:#42210B;" d="M294.401,445.781c0.042-0.682,0.042-1.366,0-2.048C294.483,444.413,294.483,445.101,294.401,445.781 z"></path> <path style="fill:#42210B;" d="M294.401,441.686c0.041-0.653,0.041-1.31,0-1.963C294.49,440.374,294.49,441.033,294.401,441.686z"></path> <path style="fill:#42210B;" d="M293.889,447.744c0.041-0.653,0.041-1.31,0-1.963C293.977,446.432,293.977,447.093,293.889,447.744z "></path> <path style="fill:#42210B;" d="M293.889,439.552c-0.379-1.234-0.865-2.433-1.45-3.584l0,0 C293.049,437.107,293.535,438.308,293.889,439.552z"></path> <path style="fill:#42210B;" d="M292.438,451.499c0.586-1.151,1.071-2.35,1.45-3.584c-0.341,1.302-0.829,2.561-1.45,3.754V451.499z"></path> </g> <g> <rect x="268.797" y="341.333" style="fill:#E0CBB5;" width="17.067" height="25.6"></rect> <path style="fill:#E0CBB5;" d="M226.134,265.727c-15.03,3.88-25.55,17.415-25.6,32.938v68.267h-17.067v-68.267 c0.025-24.964,18.052-46.271,42.667-50.432L226.134,265.727L226.134,265.727z"></path> </g> <path style="fill:#FF7D00;" d="M456.534,59.734v204.8h-25.6V93.867c0-4.713-3.821-8.534-8.534-8.534H157.868V51.2 c0-4.713-3.821-8.534-8.534-8.534h-42.667V17.067H192V51.2c0,4.713,3.821,8.534,8.534,8.534 C200.534,59.734,456.534,59.734,456.534,59.734z"></path> <g> <path style="fill:#42210B;" d="M176.897,451.499L176.897,451.499c-0.623-1.193-1.109-2.453-1.45-3.754 C175.816,449.036,176.302,450.293,176.897,451.499z"></path> <path style="fill:#42210B;" d="M176.897,435.797L176.897,435.797c-0.586,1.151-1.071,2.35-1.45,3.584 C175.8,438.138,176.286,436.937,176.897,435.797z"></path> <path style="fill:#42210B;" d="M175.447,439.723c-0.041,0.653-0.041,1.31,0,1.963C175.357,441.033,175.357,440.374,175.447,439.723 z"></path> <path style="fill:#42210B;" d="M174.934,445.781c-0.041,0.653-0.041,1.31,0,1.963C174.845,447.093,174.845,446.432,174.934,445.781 z"></path> <path style="fill:#42210B;" d="M174.934,441.686c-0.042,0.682-0.042,1.366,0,2.048 C174.892,443.051,174.892,442.367,174.934,441.686z"></path> <path style="fill:#42210B;" d="M174.934,443.733c-0.042,0.682-0.042,1.366,0,2.048 C174.892,445.099,174.892,444.415,174.934,443.733z"></path> </g> <path style="fill:#1D9AAE;" d="M292.438,480.341v-28.672c0.623-1.193,1.109-2.453,1.45-3.754l0,0c0.089-0.651,0.089-1.312,0-1.963 c0.269-0.713,0.441-1.46,0.513-2.219c0.042-0.682,0.042-1.366,0-2.048c0.089-0.651,0.089-1.312,0-1.963l0,0 c-0.341-1.302-0.829-2.561-1.45-3.754v-37.376c0-3.346-2.713-6.059-6.059-6.059H182.956c-3.346,0-6.059,2.713-6.059,6.059v37.205 c-0.623,1.193-1.109,2.453-1.45,3.754l0,0c-0.089,0.651-0.089,1.312,0,1.963c-0.228,1.356-0.228,2.74,0,4.096 c-0.089,0.651-0.089,1.312,0,1.963l0,0c0.341,1.302,0.829,2.561,1.45,3.754v28.672c0,3.346,2.713,6.059,6.059,6.059h103.424 C289.597,486.063,292.257,483.553,292.438,480.341z M295.766,494.933H173.569c-3.939-0.046-7.122-3.228-7.168-7.168v-96.597 c0.046-3.939,3.228-7.122,7.168-7.168h122.197c3.939,0.046,7.122,3.228,7.168,7.168v96.598 C302.888,491.705,299.706,494.887,295.766,494.933z"></path> <path style="fill:#FF9900;" d="M413.867,324.267H217.601v-25.6c0.037-6.061,3.285-11.647,8.534-14.677v14.677h17.067v-85.333 h-17.067v17.664c-34.11,4.297-59.702,33.29-59.734,67.669v25.6H55.468V59.734h85.333v34.133c0,4.713,3.821,8.534,8.534,8.534 h264.533v221.866H413.867z"></path> <g> <path style="fill:#42210B;" d="M456.534,264.533v-204.8H200.535c-4.713,0-8.534-3.821-8.534-8.534V17.067h-85.333v25.6h42.667 c4.713,0,8.534,3.821,8.534,8.534v34.133h264.533c4.713,0,8.534,3.821,8.534,8.534v170.666h25.598V264.533z M251.735,341.334 h-34.133v25.6h34.133V341.334z M226.134,248.234c-24.615,4.161-42.641,25.467-42.667,50.432v68.267h17.067v-68.267 c0.05-15.524,10.569-29.058,25.6-32.938V248.234z M285.868,341.334h-17.067v25.6h17.067V341.334z M295.766,384H173.569 c-3.939,0.046-7.122,3.228-7.168,7.168v96.598c0.046,3.939,3.228,7.122,7.168,7.168h122.197c3.939-0.046,7.122-3.228,7.168-7.168 v-96.598C302.888,387.228,299.706,384.046,295.766,384z M209.068,8.534v34.133h255.999c4.713,0,8.534,3.821,8.534,8.534v221.866 c0,4.713-3.821,8.534-8.534,8.534h-34.133v51.2c0,4.713-3.821,8.534-8.534,8.534H302.935v26.795 c10.109,3.13,17.018,12.457,17.067,23.04v96.597c-0.047,13.365-10.869,24.188-24.234,24.234H173.569 c-13.365-0.047-24.188-10.869-24.234-24.234v-96.598c0.048-10.583,6.958-19.909,17.067-23.04v-26.795H46.934 c-4.713,0-8.534-3.821-8.534-8.534V51.2c0-4.713,3.821-8.534,8.534-8.534h42.667V8.534C89.601,3.821,93.422,0,98.134,0h102.4 C205.247,0,209.068,3.821,209.068,8.534z M166.4,298.667c0.032-34.38,25.624-63.372,59.734-67.669v-17.664h17.067v85.333h-17.067 v-14.677c-5.249,3.03-8.497,8.617-8.534,14.677v25.6h196.267V102.4H149.334c-4.713,0-8.534-3.821-8.534-8.534V59.734H55.468 v264.533h110.934v-25.6H166.4z"></path> <circle style="fill:#42210B;" cx="234.876" cy="443.737" r="17.853"></circle> <circle style="fill:#42210B;" cx="191.808" cy="443.737" r="17.853"></circle> <circle style="fill:#42210B;" cx="277.955" cy="443.737" r="17.853"></circle> </g> <g> <path style="fill:#FF7D00;" d="M76.033,258.304L55.468,59.734v264.533h110.934v-12.715l-36.266-1.878 C101.919,308.191,78.975,286.405,76.033,258.304z"></path> <polygon style="fill:#FF7D00;" points="217.601,324.267 413.867,324.267 217.601,314.197 "></polygon> </g> </g></svg>