<!DOCTYPE svg PUBLIC "-//W3C//DTD SVG 1.1//EN" "http://www.w3.org/Graphics/SVG/1.1/DTD/svg11.dtd">

<!-- Uploaded to: SVG Repo, www.svgrepo.com, Transformed by: SVG Repo Mixer Tools -->
<svg fill="#000000" width="800px" height="800px" viewBox="0 0 24 24" id="unlink-alt-3" data-name="Flat Line" xmlns="http://www.w3.org/2000/svg" class="icon flat-line">

<g id="SVGRepo_bgCarrier" stroke-width="0"/>

<g id="SVGRepo_tracerCarrier" stroke-linecap="round" stroke-linejoin="round"/>

<g id="SVGRepo_iconCarrier">

<rect id="secondary" x="1.29" y="8.21" width="21.92" height="7.07" rx="3.54" transform="translate(-4.72 12.1) rotate(-45)" style="fill: #ec8627; stroke-width: 2;"/>

<path id="primary" d="M3,7A4,4,0,0,1,7,3" style="fill: none; stroke: #000000; stroke-linecap: round; stroke-linejoin: round; stroke-width: 2;"/>

<path id="primary-2" data-name="primary" d="M17,21a4,4,0,0,0,4-4" style="fill: none; stroke: #000000; stroke-linecap: round; stroke-linejoin: round; stroke-width: 2;"/>

<path id="primary-3" data-name="primary" d="M6,8,8,6m8,12,2-2m-7-3,2-2" style="fill: none; stroke: #000000; stroke-linecap: round; stroke-linejoin: round; stroke-width: 2;"/>

<path id="primary-4" data-name="primary" d="M12.5,16.5l-3,3a3.54,3.54,0,0,1-5,0h0a3.54,3.54,0,0,1,0-5l3-3" style="fill: none; stroke: #000000; stroke-linecap: round; stroke-linejoin: round; stroke-width: 2;"/>

<path id="primary-5" data-name="primary" d="M12,7l3-3a3.54,3.54,0,0,1,5,0h0a3.54,3.54,0,0,1,0,5l-3,3" style="fill: none; stroke: #000000; stroke-linecap: round; stroke-linejoin: round; stroke-width: 2;"/>

</g>

</svg>